<?xml version="1.0" encoding="UTF-8"?>
<svg width="28px" height="57px" viewBox="0 0 28 57" version="1.1" xmlns="http://www.w3.org/2000/svg" xmlns:xlink="http://www.w3.org/1999/xlink">
    <!-- Generator: Sketch 46.2 (44496) - http://www.bohemiancoding.com/sketch -->
    <title>Mondi/sistemi climatizzati e idraulica</title>
    <desc>Created with Sketch.</desc>
    <defs></defs>
    <g id="Icons" stroke="none" stroke-width="1" fill="none" fill-rule="evenodd">
        <g id="Mondi" transform="translate(-890.000000, -469.000000)" fill="#ffffff">
            <g transform="translate(73.000000, 299.000000)" id="Mondi/sistemi-climatizzati-e-idraulica">
                <g transform="translate(817.000000, 170.000000)">
                    <g id="Sistemi-climatizzati-e-idraulica-icon">
                        <path d="M10.0296995,56.5923446 C4.53953216,56.5923446 0.0730882364,52.0214894 0.0730882364,46.4029794 C0.0730882364,42.1000542 2.73978572,38.2431444 6.71082905,36.8040229 C7.25953224,36.6050808 7.85840257,36.9002852 8.04966482,37.4586066 C8.24406252,38.016928 7.95716914,38.6314024 7.41160141,38.8287401 C4.27772236,39.9646354 2.17226985,43.0081287 2.17226985,46.4029794 C2.17226985,50.8358586 5.69807974,54.4440908 10.0296995,54.4440908 C14.3613192,54.4440908 17.8871291,50.8358586 17.8871291,46.4029794 C17.8871291,43.0081287 15.7816766,39.9646354 12.6477975,38.8287401 C12.1022298,38.6314024 11.8153364,38.016928 12.0097341,37.4586066 C12.2025641,36.9002852 12.7998667,36.6050808 13.3485699,36.8040229 C17.3196132,38.2431444 19.9863107,42.1000542 19.9863107,46.4029794 C19.9863107,52.0214894 15.5198668,56.5923446 10.0296995,56.5923446" id="Fill-1027"></path>
                        <path d="M12.9984972,38.8913106 C12.4184396,38.8913106 11.9481226,38.4116035 11.9481226,37.8163815 L11.9481226,4.84333245 C11.9481226,3.76038149 11.0874424,2.87958138 10.0292291,2.87958138 C8.97258358,2.87958138 8.11033572,3.76038149 8.11033572,4.84333245 L8.11033572,37.8163815 C8.11033572,38.4116035 7.64158643,38.8913106 7.06152877,38.8913106 C6.48147112,38.8913106 6.01115411,38.4116035 6.01115411,37.8163815 L6.01115411,4.84333245 C6.01115411,2.57635511 7.814036,0.731327549 10.0292291,0.731327549 C12.24599,0.731327549 14.0488719,2.57635511 14.0488719,4.84333245 L14.0488719,37.8163815 C14.0488719,38.4116035 13.5785549,38.8913106 12.9984972,38.8913106" id="Fill-1029"></path>
                        <path d="M22.1997793,8.36829772 L18.9436179,8.36829772 C18.3619925,8.36829772 17.8932432,7.88698618 17.8932432,7.29336862 C17.8932432,6.70135543 18.3619925,6.22004389 18.9436179,6.22004389 L22.1997793,6.22004389 C22.779837,6.22004389 23.250154,6.70135543 23.250154,7.29336862 C23.250154,7.88698618 22.779837,8.36829772 22.1997793,8.36829772" id="Fill-1031"></path>
                        <path d="M22.1997793,35.0411392 L18.9436179,35.0411392 C18.3619925,35.0411392 17.8932432,34.561432 17.8932432,33.9662101 C17.8932432,33.3725925 18.3619925,32.8928854 18.9436179,32.8928854 L22.1997793,32.8928854 C22.779837,32.8928854 23.250154,33.3725925 23.250154,33.9662101 C23.250154,34.561432 22.779837,35.0411392 22.1997793,35.0411392" id="Fill-1033"></path>
                        <path d="M22.1997793,12.8136911 L18.9436179,12.8136911 C18.3619925,12.8136911 17.8932432,12.3323795 17.8932432,11.738762 C17.8932432,11.1467488 18.3619925,10.6654373 18.9436179,10.6654373 L22.1997793,10.6654373 C22.779837,10.6654373 23.250154,11.1467488 23.250154,11.738762 C23.250154,12.3323795 22.779837,12.8136911 22.1997793,12.8136911" id="Fill-1035"></path>
                        <path d="M26.5444112,17.2592449 L18.9425205,17.2592449 C18.3624628,17.2592449 17.8937135,16.7779333 17.8937135,16.1843158 C17.8937135,15.5923026 18.3624628,15.1109911 18.9425205,15.1109911 L26.5444112,15.1109911 C27.1244688,15.1109911 27.5947858,15.5923026 27.5947858,16.1843158 C27.5947858,16.7779333 27.1244688,17.2592449 26.5444112,17.2592449" id="Fill-1037"></path>
                        <path d="M22.1997793,21.7047987 L18.9436179,21.7047987 C18.3619925,21.7047987 17.8932432,21.2234871 17.8932432,20.6298696 C17.8932432,20.0378564 18.3619925,19.5565449 18.9436179,19.5565449 L22.1997793,19.5565449 C22.779837,19.5565449 23.250154,20.0378564 23.250154,20.6298696 C23.250154,21.2234871 22.779837,21.7047987 22.1997793,21.7047987" id="Fill-1039"></path>
                        <path d="M22.1997793,26.150192 L18.9436179,26.150192 C18.3619925,26.150192 17.8932432,25.6688805 17.8932432,25.0752629 C17.8932432,24.4832498 18.3619925,24.0019382 18.9436179,24.0019382 L22.1997793,24.0019382 C22.779837,24.0019382 23.250154,24.4832498 23.250154,25.0752629 C23.250154,25.6688805 22.779837,26.150192 22.1997793,26.150192" id="Fill-1041"></path>
                        <path d="M26.5444112,30.5962272 L18.9425205,30.5962272 C18.3624628,30.5962272 17.8937135,30.1149156 17.8937135,29.5212981 C17.8937135,28.9276805 18.3624628,28.4479733 18.9425205,28.4479733 L26.5444112,28.4479733 C27.1244688,28.4479733 27.5947858,28.9276805 27.5947858,29.5212981 C27.5947858,30.1149156 27.1244688,30.5962272 26.5444112,30.5962272" id="Fill-1043"></path>
                    </g>
                </g>
            </g>
        </g>
    </g>
</svg>
